<?xml version="1.0" encoding="utf-8"?>
<!-- Generator: Adobe Illustrator 18.1.0, SVG Export Plug-In . SVG Version: 6.00 Build 0)  -->
<svg version="1.1" id="Layer_1" xmlns="http://www.w3.org/2000/svg" xmlns:xlink="http://www.w3.org/1999/xlink" x="0px" y="0px"
	 viewBox="0 0 604.3 649.3" enable-background="new 0 0 604.3 649.3" xml:space="preserve">
<g>
	<path fill="#FF4848" d="M301.6,556.1c-2.8,3.7-4.4,6.2-6.4,8.3c-24.2,25.7-50.3,48.9-81.9,65.3c-26.9,13.9-55.5,21.5-85.8,19
		C68.8,643.8,19.1,603,4.6,544c-8.3-33.8-2.7-66,11.2-97.3c48.7-109.5,101.7-216.9,156.3-323.6c11.2-21.9,22.4-43.9,34.7-65.3
		c15.7-27.3,38.4-46.9,69.5-54.3C320.6-7,357.6,6.3,386.1,41.7c8.8,10.9,16.4,23,22.7,35.4c32.3,63.2,64.5,126.5,95.9,190.2
		c21.7,43.9,42.2,88.3,62.9,132.7c10.2,21.9,20.8,43.7,28.8,66.3c23.9,67.6-13.4,157.5-98.6,178.8c-37.6,9.4-73.4,2.1-107.3-15.2
		c-31.3-16-57.3-39-81.3-64.4C306.9,563,304.9,560.2,301.6,556.1z M302.2,239.2c8.9,1.2,18,1.7,26.7,3.7
		c49.8,11.2,89.6,54.4,82.4,120.6c-2.8,26-11.2,50.4-22.5,73.8c-15.2,31.5-34.9,60-56.7,87.1c-2.8,3.5-2.9,5.6,0.3,8.6
		c13.2,12.5,25.7,25.9,39.7,37.6c23.2,19.6,48.8,35,79.9,38.8c33.6,4.1,63-5.2,85.8-30.3c30-33,34.3-71.6,17.4-111.5
		c-19-44.9-39.9-89-61.1-132.9c-34-70.2-68.7-140-103.6-209.7c-9.2-18.4-18.6-37-30.2-54c-21.6-31.6-63.2-39-94.5-18.4
		c-13.8,9.1-23.1,22.1-30.3,36.5c-43.7,87-87.5,174-130.5,261.3c-18.8,38.1-36.2,77-53.8,115.7c-8.7,19.3-12.7,39.7-9.7,60.9
		c6.6,46.3,44.4,82.7,95.4,84.2c21.1,0.6,40.8-5.2,59.4-15.1c30.1-16,54.5-38.7,77.3-63.6c2.1-2.3,1.7-4,0-6.3
		c-8.7-11.5-17.5-22.9-25.7-34.8c-22.5-32.8-41.3-67.4-50.9-106.5c-6-24.8-6.8-49.3,1.4-73.8C212.2,269.2,254.7,239.2,302.2,239.2z
		 M301.9,496.6c1.7-1.8,2.8-2.8,3.7-4c16.5-21.3,31.6-43.5,43.9-67.6c13.3-26,23.8-52.9,22.1-82.9c-1.1-19.7-8.4-36.5-23.9-49
		c-16.4-13.3-35.5-17.6-56.2-14.4c-27.1,4.2-46.6,18.5-55.3,45c-6.5,20-4,40.1,1.7,59.9c9.5,32.8,26.7,61.6,46.2,89.3
		C289.7,480.8,295.7,488.4,301.9,496.6z"/>
</g>
</svg>
