<?xml version="1.0" encoding="utf-8"?>
<!-- Generator: Adobe Illustrator 18.1.0, SVG Export Plug-In . SVG Version: 6.00 Build 0)  -->
<svg version="1.1" id="Layer_1" xmlns="http://www.w3.org/2000/svg" xmlns:xlink="http://www.w3.org/1999/xlink" x="0px" y="0px"
	 viewBox="0 0 604.3 800" enable-background="new 0 0 604.3 800" xml:space="preserve">
<g>
	<path fill="#FF4848" d="M176.3,610.7c20.2,51.5,67.2,88.1,125.9,88.1c58.7,0,105.7-36.6,125.9-88.1H176.3z"/>
	<path fill="#FF4848" d="M163.7,488c-6.2,0-12.2-3.7-14.6-9.9c-3.2-8.1,0.7-17.2,8.8-20.5l62.9-25.2c8-3.2,17.2,0.7,20.5,8.8
		c3.2,8.1-0.7,17.2-8.8,20.5l-62.9,25.2C167.6,487.6,165.6,488,163.7,488"/>
	<path fill="#FF4848" d="M440.7,488c-2,0-3.9-0.4-5.9-1.1l-62.9-25.2c-8.1-3.2-12-12.4-8.8-20.5c3.2-8.1,12.4-12,20.4-8.8l62.9,25.2
		c8.1,3.2,12,12.4,8.8,20.5C452.8,484.3,446.9,488,440.7,488"/>
	<path fill="#FF4848" d="M472.7,248c18.6-99.8-35.2-193.6-37.7-198.6c-3.9-7.6-13.1-10.7-20.8-7c-7.7,3.7-11.1,12.8-7.6,20.6
		c11.8,26.3,9.9,41.2,7.4,72.2C365.6,32.2,320-2.6,294.7,1.4c-9,2.2-11.1,12.5-7.9,20.2c24.7,89.9-30.9,60.9-62.3,108.2
		c-1.3-14.9-8.6-22.8,5.3-43.2c4.7-6.8,3.2-16.2-3.3-21.3c-6.5-5.1-15.9-4.3-21.4,1.9c-2.9,3.2-57.7,65.4-63.3,174.2
		C56.6,294.8,0,389.5,0,497.4c0,166.9,135.3,302.2,302.2,302.2c166.9,0,302.2-135.3,302.2-302.2C604.3,393.9,552.2,302.5,472.7,248
		 M302.2,749.2c-138.8,0-251.8-113-251.8-251.8s113-251.8,251.8-251.8S554,358.6,554,497.4S441,749.2,302.2,749.2"/>
</g>
</svg>
