<?xml version="1.0" encoding="utf-8"?>
<!-- Generator: Adobe Illustrator 18.1.0, SVG Export Plug-In . SVG Version: 6.00 Build 0)  -->
<svg version="1.1" id="Layer_1" xmlns="http://www.w3.org/2000/svg" xmlns:xlink="http://www.w3.org/1999/xlink" x="0px" y="0px"
	 viewBox="0 0 189.8 45.2" enable-background="new 0 0 189.8 45.2" xml:space="preserve">
<g>
	<path fill="#FFFFFF" d="M11.5,21.9c2.6,0,4.5-0.5,4.5-0.5s0.7,0.3,0.7,2.2c0,4.4-3.2,4.7-8.7,4.7c-6.7,0-8-1.5-8-4.7
		c0-3.8,2.5-9.8,2.9-15.9c0-0.7,0-1.3-0.1-2c1.6-0.4,4.2-0.5,5.7-0.5c2.8,0,4.1,0.1,6-0.1c6.2-0.5,5-3.9,5-3.9s3.1,2.2,1.4,5.9
		c-1.6,3.5-5.8,3.2-9.3,3.1c-0.1,0.4-0.1,2.6-0.2,3.1c1.6,0,2.8,0,3.8-0.3c0,0,0.7,1.5,0.7,3.1c0,2.7-1.9,3.5-4.5,3.5
		c-0.4,0-0.9,0-1.4-0.1c-0.1,0.5-0.1,1.8-0.2,2.2C10.3,21.8,10.9,21.9,11.5,21.9z"/>
	<path fill="#FFFFFF" d="M27.4,26.4c0,0.7,0,1.7,0.1,2.4c-1.4,0.3-2.7,0.5-3.8,0.5c-3.4,0-5-1.5-5-4.7c0-3.5,1.7-6.7,1.7-11V13
		c1.7-0.4,3.1-0.6,4.2-0.6c3,0,4.2,1.2,4.2,3.1c0,0.3,0,0.6-0.1,1c2.1-2.8,4.3-4.1,6.6-4.1c2.3,0,3.9,1.1,3.9,3.6
		c0,3.1-1.7,6.5-1.7,10.6c0,0.7,0,1.4,0.2,2.2c-1.3,0.4-2.6,0.6-3.6,0.6c-3.2,0-4.5-1.6-4.5-4.7c0-2.2,0.6-3.7,0.7-4.5
		c0.1-0.5-0.4-0.9-1-0.9C28,19.3,27.4,24.4,27.4,26.4z"/>
	<path fill="#FFFFFF" d="M51.1,17c0.1-0.5,0.1-0.9,0.1-1.3c0-2.3-1.5-3.3-4.3-3.3c-1.2,0-2.6,0.2-4.3,0.5c0.1,0.2,0.1,0.4,0.1,0.8
		c0,2.7-1.9,10.1-2.9,14c-0.1,0.6-0.1,0.7-0.4,1.5c-4.4,1.3-8.7,3.4-11,6.5c-4.4,6.2,4.1,11.6,10.6,8.1c5.6-3.1,7.2-8.3,9.1-14.6
		C50.3,22.9,51.1,17,51.1,17z M33.7,37.9c-1.7-0.6-1.4-2-0.1-3.7c1.2-1.6,3.3-2.8,5.6-3.7C38.1,34.1,36.2,38.7,33.7,37.9z"/>
	<path fill="#FFFFFF" d="M47.8,3.7c-2.3-0.3-4.7,0.4-4.7,3.3c0,2.5,1.9,3.4,4.4,3.4c2.5,0,4.8-1.6,5.7-3.8c2-5-1.7-6.6-1.7-6.6
		S52.4,4.3,47.8,3.7z"/>
	<path fill="#FFFFFF" d="M52.4,22.6c0-6.1,2.8-10.2,11.5-10.2c5.1,0,8.4,2.3,8.4,6.8c0,6.1-2.8,10.2-11.5,10.2
		C55.7,29.4,52.4,27.2,52.4,22.6z M64.3,18.5c0-0.8-0.6-1.1-1.2-1.1c-0.9,0-1.6,0.7-2.2,3.5c-0.3,1.3-0.4,2.1-0.4,2.6
		c0,0.7,0.5,1,1,1c0.9,0,1.8-0.7,2.4-3.6C64.2,19.8,64.3,19,64.3,18.5z"/>
	<path fill="#FFFFFF" d="M86.3,15c0-0.7,0-1.3-0.1-2c1.5-0.4,2.8-0.5,3.9-0.5c3.3,0,4.9,1.6,4.9,4.8c0,3.5-1.7,6.7-1.7,11v0.5
		c-1.7,0.4-3.1,0.6-4.2,0.6c-3,0-4.2-1.2-4.2-3.1c0-0.3,0-0.5,0.1-0.9c-2,2.7-4.3,4-6.6,4c-2.3,0-3.9-1.3-3.9-4.7
		c0-3.2,1.8-7.2,1.8-11c0-0.2,0-0.7,0-0.7c1.5-0.4,2.8-0.5,3.9-0.5c3.3,0,4.2,1.6,4.2,4.8c0,1.8-0.6,3.4-0.7,4.4
		c-0.1,0.8,0.5,0.9,0.8,0.9C86,22.5,86.3,16.3,86.3,15z"/>
	<path fill="#FFFFFF" d="M105.1,26.9c0,0.7,0,1.3,0.1,2c-1.4,0.3-2.7,0.5-3.8,0.5c-3.4,0-5-1.5-5-4.7c0-3.5,1.7-6.7,1.7-11v-0.5
		c1.7-0.4,3.1-0.6,4.3-0.6c3,0,4.2,1.2,4.2,3.2c0,0.7-0.1,1.4-0.4,2.2c1.9-3.4,4.4-5.5,6.6-5.5c2.3,0,3.5,1.6,3.5,3.5
		c0,3.8-3.3,7.1-6.9,7.1c-0.9,0-1.5,0-2.4-0.5c0.4-0.6,0.9-1.6,0.9-2.3c0-0.9-0.5-0.9-0.7-0.9C106.2,19.4,105.1,23.7,105.1,26.9z"/>
	<path fill="#FFFFFF" d="M125.9,26.4c0,0.7,0,1.7,0.1,2.4c-1.4,0.3-2.7,0.5-3.8,0.5c-3.4,0-5-1.5-5-4.7c0-3.5,1.7-6.7,1.7-11V13
		c1.7-0.4,3.1-0.6,4.2-0.6c3,0,4.2,1.2,4.2,3.1c0,0.3,0,0.6-0.1,1c2.1-2.8,4.3-4.1,6.6-4.1c2.3,0,3.9,1.1,3.9,3.6
		c0,3.1-1.7,6.5-1.7,10.6c0,0.7,0,1.4,0.2,2.2c-1.3,0.4-2.6,0.6-3.6,0.6c-3.2,0-4.7-1.7-4.7-4.8c0-2.2,0.6-3.4,0.7-4.2
		c0.1-0.9-0.6-1.1-0.9-1.1C126.4,19.3,125.9,24.4,125.9,26.4z"/>
	<path fill="#FFFFFF" d="M157.1,22.9c0.4,0.3,1.1,0.9,1.1,1.7c0,3.4-5,4.7-9.9,4.7c-5.4,0-9.1-2.3-9.1-6.7c0-6.1,3.3-10.2,12.3-10.2
		c5.4,0,8.2,2.1,8.2,4.9c0,3.7-5,5.4-9.3,5.4c-0.9,0-1.7-0.1-2.5-0.2c0.2,1.6,1.5,2.6,3,2.6C154.4,25.1,157.1,22.9,157.1,22.9z
		 M148.2,20.5c1.9-0.1,3.7-1.8,3.8-2.6c0.2-1.2-0.6-1.5-1.4-1.4C149.7,16.6,148.7,18.1,148.2,20.5z"/>
	<path fill="#FFFFFF" d="M179.2,26.8c0,0,5.8-1.6,7-5.2c0.4-1.3,0.1-3.4-1.5-4.6c0,0,7.3,2.4,4.7,7.9c-2.6,5.2-12.3,3-17.6,5.5"/>
	<path fill="#FFFFFF" d="M179.1,26.4l0.2-0.9c0.9-3.5,1.6-5.9,1.6-8v-0.2c0-3.1-1.8-4.8-5.2-4.8c-1.1,0-2.5,0.2-4,0.5
		c0.4,0.9,0.6,2.2,0.6,3.6c0,3.1-1,6.5-2.2,6.5c-0.2,0-0.9-0.2-0.8-1.1c0.1-0.7,0.9-1.8,0.9-4.6c0-3.2-1.6-5-5-5
		c-1,0-2.2,0.2-3.4,0.5c0.1,0.7,0.2,1.4,0.2,2.2c0,3.9-1.7,7.3-1.7,10.4c0,2.4,2.1,3.8,4.9,3.8c3.9,0,5.8-3,6.7-5.4
		c-0.2,1-0.6,2.6-0.6,2.6c-0.1,0.5-0.5,2.1-0.7,2.8c-4.4,1.3-8.7,3.4-11,6.5c-4.4,6.2,4.1,11.6,10.6,8.1c4.6-2.4,6.6-8.7,8.7-17
		C178.9,27.1,179.1,26.6,179.1,26.4z M164.8,38c-1.7-0.6-1.4-2-0.1-3.7c1.2-1.6,3.1-2.3,5.4-3.2C169.7,34.3,167.3,38.8,164.8,38z"/>
</g>
</svg>
