<?xml version="1.0" encoding="utf-8"?>
<!-- Generator: Adobe Illustrator 18.1.0, SVG Export Plug-In . SVG Version: 6.00 Build 0)  -->
<svg version="1.1" id="Layer_1" xmlns="http://www.w3.org/2000/svg" xmlns:xlink="http://www.w3.org/1999/xlink" x="0px" y="0px"
	 viewBox="0 0 604.3 268.9" enable-background="new 0 0 604.3 268.9" xml:space="preserve">
<path fill="#FF4848" d="M600.5,20.3c-9.9-21.2-57.1-32.9-131.1,1.6l-134,62.5c-62.5-18.8-148.9-44.7-228.1-68.7L69.2,33.3
	c40.9,31.2,99.7,75.9,142.6,108.6l-88.2,41.1c-36.7-7-76.2-14.6-105.3-20.1c-15.9-3-25.9,11-11,22.3c69.9,53.3,97.9,74.9,97.9,74.9
	l0,0c12.1,9.3,28.9,11.7,43.7,4.8L575.1,66.1C599.9,54.6,609.4,39.5,600.5,20.3z"/>
</svg>
